<?xml version="1.0" standalone="no"?><!DOCTYPE svg PUBLIC "-//W3C//DTD SVG 1.1//EN" "http://www.w3.org/Graphics/SVG/1.1/DTD/svg11.dtd"><svg t="1591613509929" class="icon" viewBox="0 0 1070 1024" version="1.1" xmlns="http://www.w3.org/2000/svg" p-id="2578" xmlns:xlink="http://www.w3.org/1999/xlink" width="208.984375" height="200"><defs><style type="text/css"></style></defs><path d="M534.315801 523.501655a261.747108 261.747108 0 1 1 261.747107-261.070759A261.070758 261.070758 0 0 1 534.315801 523.501655zM534.315801 68.3187a194.112196 194.112196 0 1 0 194.112196 194.112196A194.112196 194.112196 0 0 0 534.315801 68.3187z" fill="#732e12" p-id="2579"></path><path d="M1035.490495 1024a33.817456 33.817456 0 0 1-33.817456-33.817456 467.357238 467.357238 0 0 0-934.038127 0 33.817456 33.817456 0 0 1-33.817456 33.817456 33.817456 33.817456 0 0 1-33.817456-33.817456 534.99215 534.99215 0 0 1 1069.307951 0 33.817456 33.817456 0 0 1-33.817456 33.817456z" fill="#732e12" p-id="2580"></path></svg>